<?xml version="1.0" encoding="utf-8"?>
<!-- Generator: Adobe Illustrator 16.0.0, SVG Export Plug-In . SVG Version: 6.00 Build 0)  -->
<!DOCTYPE svg PUBLIC "-//W3C//DTD SVG 1.1//EN" "http://www.w3.org/Graphics/SVG/1.1/DTD/svg11.dtd">
<svg version="1.1" id="Layer_1" xmlns="http://www.w3.org/2000/svg" xmlns:xlink="http://www.w3.org/1999/xlink" x="0px" y="0px"
	 width="500px" height="500px" viewBox="0 0 500 500" enable-background="new 0 0 500 500" xml:space="preserve">
     <!-- color fill="#4D4D4D"-->
<g >
		<path d="M11.665,487.379c0-31.496,0-63.051,0-94.551"/>
		<path d="M11.665,487.379h132.121
			c74.502,0,108.275-63.528,108.275-119.733c0,0,0-301.976,0-355.024h-95.735l-0.134,365.483
			c0.071,12.485-2.981,14.724-12.69,14.613l-131.838,0.11"/>
		<path d="M488.335,193.593c0,46.247-10.359,84.933-61.189,103.613
			c-25.081,11.121-12.526,42.188-4.847,63.387c15.183,42.029,35.653,74.269,54.047,106.67c3.272,5.696,9.196,12.363,7.993,20.116
			c-34.661,0-69.341,0-104.034,0c-5.177-32.295-16.191-60.424-32.021-90.556c-14.617-27.785-37.511-53.61-36.007-86.459
			c1.242-27.881,24.836-50.188,39.649-60.603c9.811-6.816,41.869-19.842,41.869-29.754l-0.197-92.911
			c-0.59-9.464-0.826-20.671-20.021-20.128l-99.34-0.323V12.621h93.981c66.21-0.102,118.809,37.652,120.115,106.789V193.593z"/>
</g>
</svg>
